# xmcd
#
# Track frame offsets:
#	150
#	12007
#	27843
#	38987
#	53741
#	65923
#	81061
#	93496
#	111643
#	122618
#	136263
#	147251
#
# Disc length: 2134 seconds
# Revision: 0
# Processed by: cddbd v1.5.2PL0 Copyright (c) Steve Scherf et al.
# Submitted via: dBpowerAMP V12.0
#
DISCID=a408540c
DTITLE=The Expedition Show - Stormy Horizons
DYEAR=2013
DGENRE=Country
TTITLE0=Cheating Game Of the Blues
TTITLE1=Rambler Like Me
TTITLE2=Paradise City of God
TTITLE3=Dryland Farmer
TTITLE4=World's Greatest Picture
TTITLE5=Gotta Travel On
TTITLE6=Stormy Horizons
TTITLE7=Foggy Mountain Special
TTITLE8=Take the High Road
TTITLE9=Low Down Cryin' Shame
TTITLE10=He's the One For Me
TTITLE11=The Blues Come Around
EXTD=
EXTT0=
EXTT1=
EXTT2=
EXTT3=
EXTT4=
EXTT5=
EXTT6=
EXTT7=
EXTT8=
EXTT9=
EXTT10=
EXTT11=
PLAYORDER=
